<svg width="174" height="151" viewBox="0 0 174 151" fill="none" xmlns="http://www.w3.org/2000/svg">
<path d="M87 0.341309L173.603 150.341H0.397461L87 0.341309Z" fill="#047E96"/>
<g clip-path="url(#clip0)">
<path d="M67 118.216C67 120.494 68.9196 122.341 71.2857 122.341H102.714C105.08 122.341 107 120.494 107 118.216V94.8413H67V118.216ZM95.5714 101.373C95.5714 100.805 96.0536 100.341 96.6429 100.341H100.214C100.804 100.341 101.286 100.805 101.286 101.373V104.81C101.286 105.377 100.804 105.841 100.214 105.841H96.6429C96.0536 105.841 95.5714 105.377 95.5714 104.81V101.373ZM95.5714 112.373C95.5714 111.805 96.0536 111.341 96.6429 111.341H100.214C100.804 111.341 101.286 111.805 101.286 112.373V115.81C101.286 116.377 100.804 116.841 100.214 116.841H96.6429C96.0536 116.841 95.5714 116.377 95.5714 115.81V112.373ZM84.1429 101.373C84.1429 100.805 84.625 100.341 85.2143 100.341H88.7857C89.375 100.341 89.8571 100.805 89.8571 101.373V104.81C89.8571 105.377 89.375 105.841 88.7857 105.841H85.2143C84.625 105.841 84.1429 105.377 84.1429 104.81V101.373ZM84.1429 112.373C84.1429 111.805 84.625 111.341 85.2143 111.341H88.7857C89.375 111.341 89.8571 111.805 89.8571 112.373V115.81C89.8571 116.377 89.375 116.841 88.7857 116.841H85.2143C84.625 116.841 84.1429 116.377 84.1429 115.81V112.373ZM72.7143 101.373C72.7143 100.805 73.1964 100.341 73.7857 100.341H77.3571C77.9464 100.341 78.4286 100.805 78.4286 101.373V104.81C78.4286 105.377 77.9464 105.841 77.3571 105.841H73.7857C73.1964 105.841 72.7143 105.377 72.7143 104.81V101.373ZM72.7143 112.373C72.7143 111.805 73.1964 111.341 73.7857 111.341H77.3571C77.9464 111.341 78.4286 111.805 78.4286 112.373V115.81C78.4286 116.377 77.9464 116.841 77.3571 116.841H73.7857C73.1964 116.841 72.7143 116.377 72.7143 115.81V112.373ZM102.714 83.8413H98.4286V79.7163C98.4286 78.9601 97.7857 78.3413 97 78.3413H94.1429C93.3571 78.3413 92.7143 78.9601 92.7143 79.7163V83.8413H81.2857V79.7163C81.2857 78.9601 80.6429 78.3413 79.8571 78.3413H77C76.2143 78.3413 75.5714 78.9601 75.5714 79.7163V83.8413H71.2857C68.9196 83.8413 67 85.689 67 87.9663V92.0913H107V87.9663C107 85.689 105.08 83.8413 102.714 83.8413Z" fill="#202020"/>
</g>
<defs>
<clipPath id="clip0">
<rect width="40" height="44" fill="white" transform="translate(67 78.3413)"/>
</clipPath>
</defs>
</svg>
