<svg width="175" height="151" viewBox="0 0 175 151" fill="none" xmlns="http://www.w3.org/2000/svg">
<path d="M87.553 0.300049L174.156 150.3H0.950439L87.553 0.300049Z" fill="#047E96"/>
<path d="M80.5 103.091H79.25C76.4883 103.091 74.25 105.558 74.25 108.602V114.081C74.25 117.124 76.4883 119.591 79.25 119.591H80.5C81.8805 119.591 83 118.357 83 116.836V105.846C83 104.325 81.8805 103.091 80.5 103.091ZM96.75 103.091H95.5C94.1195 103.091 93 104.325 93 105.846V116.836C93 118.357 94.1195 119.591 95.5 119.591H96.75C99.5117 119.591 101.75 117.124 101.75 114.081V108.602C101.75 105.559 99.5117 103.091 96.75 103.091ZM88 81.0913C76.8211 81.0913 68.357 91.329 68 103.091V112.716C68 113.476 68.5594 114.091 69.25 114.091H70.5C71.1906 114.091 71.75 113.476 71.75 112.716V103.091C71.75 93.2369 79.0414 85.2335 88 85.2318C96.9586 85.2335 104.25 93.2369 104.25 103.091V112.716C104.25 113.476 104.809 114.091 105.5 114.091H106.75C107.441 114.091 108 113.476 108 112.716V103.091C107.643 91.329 99.1789 81.0913 88 81.0913Z" fill="#202020"/>
</svg>
