<svg width="174" height="150" viewBox="0 0 174 150" fill="none" xmlns="http://www.w3.org/2000/svg">
<path d="M86.6587 150L0.0561523 0L173.261 0L86.6587 150Z" fill="#202020"/>
<g clip-path="url(#clip0)">
<path d="M107 59.1412V30.5412C107 29.1662 106.143 28.3412 104.714 28.3412H75.5714C70.7143 28.3412 67 31.9162 67 36.5912V64.0912C67 68.7662 70.7143 72.3412 75.5714 72.3412H104.714C105.857 72.3412 107 71.5162 107 70.1412V68.7662C107 68.2162 106.714 67.6662 106.143 67.1162C105.857 65.7412 105.857 61.8912 106.143 60.7912C106.714 60.5162 107 59.9662 107 59.1412ZM79.8571 40.7162C79.8571 39.9565 80.4964 39.3412 81.2857 39.3412H85.5714V35.2162C85.5714 34.4565 86.2107 33.8412 87 33.8412H89.8571C90.6464 33.8412 91.2857 34.4565 91.2857 35.2162V39.3412H95.5714C96.3607 39.3412 97 39.9565 97 40.7162V43.4662C97 44.2259 96.3607 44.8412 95.5714 44.8412H91.2857V54.4662C91.2857 55.2259 90.6464 55.8412 89.8571 55.8412H87C86.2107 55.8412 85.5714 55.2259 85.5714 54.4662V44.8412H81.2857C80.4964 44.8412 79.8571 44.2259 79.8571 43.4662V40.7162ZM101 66.8412H75.5714C73.8571 66.8412 72.7143 65.7412 72.7143 64.0912C72.7143 62.4412 74.1429 61.3412 75.5714 61.3412H101V66.8412Z" fill="#FCFCFC"/>
</g>
<defs>
<clipPath id="clip0">
<rect width="40" height="44" fill="white" transform="translate(67 28.3412)"/>
</clipPath>
</defs>
</svg>
