<svg width="174" height="150" viewBox="0 0 174 150" fill="none" xmlns="http://www.w3.org/2000/svg">
<path d="M86.6587 150L0.0561523 0L173.261 0L86.6587 150Z" fill="white"/>
<g clip-path="url(#clip0)">
<path d="M98.7374 49.5404L89.6 43.7413V39.3413H93.5C94.2183 39.3413 94.8 38.726 94.8 37.9663V35.2163C94.8 34.4566 94.2183 33.8413 93.5 33.8413H89.6V29.7163C89.6 28.9566 89.0182 28.3413 88.3 28.3413H85.7C84.9817 28.3413 84.4 28.9566 84.4 29.7163V33.8413H80.5C79.7817 33.8413 79.2 34.4566 79.2 35.2163V37.9663C79.2 38.726 79.7817 39.3413 80.5 39.3413H84.4V43.7413L75.2626 49.5404C74.8775 49.7846 74.5589 50.1302 74.3376 50.5435C74.1163 50.9567 74 51.4236 74 51.8985V72.3413H81.8V64.0913C81.8 61.0534 84.1278 58.5913 87 58.5913C89.8722 58.5913 92.2 61.0534 92.2 64.0913V72.3413H100V51.8985C100 50.9326 99.5206 50.0371 98.7374 49.5404ZM61 62.3691V70.9663C61 71.726 61.5817 72.3413 62.3 72.3413H71.4V55.8413L62.5754 59.8408C62.1079 60.0532 61.7094 60.4058 61.4294 60.8552C61.1494 61.3046 61.0001 61.8309 61 62.3691V62.3691ZM111.425 59.8408L102.6 55.8413V72.3413H111.7C112.418 72.3413 113 71.726 113 70.9663V62.3691C113 61.2691 112.38 60.2748 111.425 59.8408Z" fill="#202020"/>
</g>
<defs>
<clipPath id="clip0">
<rect width="52" height="44" fill="white" transform="translate(61 28.3413)"/>
</clipPath>
</defs>
</svg>
