<svg width="47" height="39" viewBox="0 0 47 39" fill="none" xmlns="http://www.w3.org/2000/svg">
<path d="M22.7337 15.3127L22.8508 13.6418C22.8508 13.6418 23.2201 13.2147 23.6955 13.36C24.1709 13.5052 24.288 13.8753 24.288 13.8753C24.288 13.8753 24.0359 15.5461 24.1616 16.0216C24.2873 16.4971 24.288 18.8168 24.288 18.8168C24.288 18.8168 26.7363 18.7005 28.0283 18.8558C29.407 18.9815 30.8934 19.2829 30.8934 19.2829C30.8934 19.2829 31.7483 19.5257 31.8263 19.7592C31.9044 19.9926 31.7873 20.1769 31.6031 20.2737C31.4634 20.3415 31.3168 20.3939 31.1659 20.4299H30.2814C30.2814 20.4299 30.0292 20.586 29.9418 20.5954C29.8543 20.6048 28.6107 20.5954 28.6107 20.5954C28.4995 20.6121 28.3892 20.6348 28.2805 20.6633C28.1446 20.7024 27.5778 20.6633 27.5778 20.6633L24.4887 20.6828C24.4887 20.6828 24.363 20.8773 24.363 20.9546C24.363 21.0319 24.3723 22.7816 24.3723 22.7816C24.3723 22.7816 24.4887 23.3836 24.4887 23.4226C24.4887 23.4616 24.4988 24.5008 24.4988 24.5008C24.4988 24.5008 24.7221 28.4742 24.7221 28.5609C24.7221 28.6475 24.7127 28.8326 24.3528 28.9005C24.4639 28.9598 24.5654 29.0353 24.6542 29.1246C24.6542 29.1246 24.6542 29.9983 24.5761 30.2606C24.498 30.523 23.8282 30.9797 23.391 30.3777C23.1873 30.3973 23.1389 30.4066 23.1389 30.4066C23.1389 30.4066 23.0225 30.4847 22.7017 30.4355C22.5783 30.3699 22.4744 30.273 22.4003 30.1544C22.3847 30.1972 22.3588 30.2354 22.3249 30.2658C22.291 30.2962 22.2501 30.3177 22.2059 30.3286C22.0607 30.3582 21.9827 30.0857 21.9827 30.0857L21.7695 29.3089L21.7305 28.9005C21.7305 28.9005 21.6134 26.0546 22.0022 23.859C22.1287 21.644 22.1287 20.7016 22.1287 20.7016H17.6342C17.5366 20.7352 17.4355 20.758 17.3329 20.7695C17.2268 20.7577 17.1221 20.7349 17.0206 20.7016L16.8262 20.6914C16.8262 20.6914 16.1369 20.1379 16.1853 19.4484C16.3016 19.0581 16.4382 19.0206 16.4382 19.0206C16.4382 19.0206 16.6318 19.1955 16.9238 18.9917C17.3415 18.9628 17.5257 18.9433 21.4596 18.9136C21.4971 18.894 21.5363 18.8778 21.5767 18.8652L22.1302 18.8558C22.1697 18.8081 22.1966 18.7512 22.2083 18.6903C22.2083 18.6224 22.1989 16.8547 22.1989 16.8547C22.171 16.7335 22.1679 16.6079 22.1895 16.4854C22.2278 16.3105 22.2184 15.543 22.2184 15.543C22.2184 15.543 22.3067 15.3033 22.7337 15.3127Z" fill="white"/>
<path d="M43.5526 32.8644L32.7986 20.0128L32.3747 19.5834C32.3747 19.5834 32.1889 19.1228 32.1093 19.0478C32.0297 18.9728 31.5261 18.3615 31.4028 18.0726C31.2794 17.7837 31.0054 17.5151 30.7142 17.1825C30.4488 16.668 29.4425 15.4141 29.1856 14.9745C28.9288 14.5349 26.2971 10.5366 26.0153 9.96894C25.8388 9.45441 25.0878 8.2325 25.0878 8.2325C25.0878 8.2325 24.2665 6.99965 23.7364 5.77774C23.2129 5.01667 22.8134 4.1773 22.5529 3.29097C22.4046 3.35734 21.6879 5.54351 21.6879 5.54351L21.449 6.54056L21.0517 7.56884C21.0517 7.56884 20.1406 9.95801 19.8861 10.6763C19.7347 11.11 19.5455 11.5296 19.3209 11.9303C19.2943 11.9732 18.8704 13.2701 18.8704 13.2701L15.5674 20.1948C15.5674 20.1948 13.6859 23.6575 13.5828 23.9464C13.4798 24.2353 12.8677 25.2433 12.7881 25.3182C12.7085 25.3932 12.2932 26.2942 12.2932 26.2942L8.47795 32.0501C8.47795 32.0501 8.28356 32.4147 6.14682 34.9335C7.86901 33.8724 18.7323 32.018 19.3326 31.8783C19.9329 31.7385 23.2719 31.6854 23.2719 31.6854L27.782 31.3872C27.782 31.3872 30.8196 30.9905 34.0969 31.3552C36.9402 31.0226 44.0897 32.0516 44.0897 32.0516C44.0897 32.0516 44.1248 31.9735 44.2841 31.9228C44.4519 32.0298 44.2841 32.0407 45.0437 32.157C45.7939 32.3397 45.7143 33.5187 45.573 33.5288C45.4317 33.539 43.5862 33.229 43.5862 33.229C43.5862 33.229 43.683 33.3071 44.8228 33.6686C46.121 34.2581 45.3966 35.2122 45.3966 35.2122C45.3966 35.2122 45.7939 35.1263 46.6152 35.8017C47.481 37.1634 46.6152 37.1634 46.6152 37.1634C44.0983 35.7697 42.2527 35.6198 39.7795 34.9545C37.3063 34.2893 30.3824 33.4758 30.3824 33.4758L23.2548 33.5937C23.2548 33.5937 22.8129 33.6366 21.2851 33.7436C19.7487 33.6795 16.0123 34.269 15.483 34.2042C14.9537 34.1394 13.7601 34.2581 13.7601 34.2581C13.7601 34.2581 12.9919 34.4923 11.6233 34.6977C10.2548 34.903 2.68995 38.5563 2.68995 38.5563C2.2996 38.7062 1.75312 38.6531 1.75312 38.6531L1.57669 38.0956C1.43803 38.1304 1.29572 38.1485 1.15278 38.1495C0.984928 38.1385 0.870168 37.8598 0.606296 37.8809C0.342424 37.902 -0.108812 37.5491 0.0239047 37.022C0.269821 36.8628 1.54156 35.5253 1.54156 35.5253L1.69769 35.2786C1.69769 35.2786 1.92175 35.213 2.65325 34.198C3.6174 33.4219 6.24441 29.4774 6.24441 29.4774L7.04773 28.3625L8.46155 26.2184C8.46155 26.2184 8.91201 25.2112 9.57403 24.482C10.5109 23.3569 19.2717 6.43125 19.2717 6.43125C19.2638 6.31136 19.2291 6.19476 19.1702 6.09005C20.2835 4.64327 22.1556 0 22.1556 0H22.4561C22.7122 0.117897 22.8004 0.793268 22.8004 0.793268C22.8004 0.793268 22.8621 0.911165 23.3125 1.62948C27.1543 7.89989 28.7773 9.91507 29.2122 10.4936C29.5041 11.1182 31.8353 13.7417 32.2241 14.1812C32.5259 14.3951 32.7763 14.6736 32.9571 14.9964C32.9571 14.9964 46.5996 30.8172 46.7144 30.9781C46.7924 31.16 46.7589 31.4465 46.7589 31.4465C46.6694 31.5911 46.5627 31.7243 46.4411 31.8432C46.2553 31.9392 45.9813 31.8752 45.9813 31.8752L45.6815 31.5855L45.2576 32.0251L45.1335 31.9337L44.9219 31.9556L44.7455 32.1164L44.3918 32.2554C44.3918 32.2554 44.3832 32.6411 44.3739 32.8347C44.3122 32.8347 43.7384 32.9956 43.7384 32.9956L43.5526 32.8644Z" fill="#047E96"/>
</svg>
