<svg width="174" height="150" viewBox="0 0 174 150" fill="none" xmlns="http://www.w3.org/2000/svg">
<path d="M86.6587 150L0.0561523 0L173.261 0L86.6587 150Z" fill="white"/>
<g clip-path="url(#clip0)">
<path d="M107 59.1413V30.5413C107 29.1663 106.143 28.3413 104.714 28.3413H75.5714C70.7143 28.3413 67 31.9163 67 36.5913V64.0913C67 68.7663 70.7143 72.3413 75.5714 72.3413H104.714C105.857 72.3413 107 71.5163 107 70.1413V68.7663C107 68.2163 106.714 67.6663 106.143 67.1163C105.857 65.7413 105.857 61.8913 106.143 60.7913C106.714 60.5163 107 59.9663 107 59.1413ZM79.8571 40.7163C79.8571 39.9566 80.4964 39.3413 81.2857 39.3413H85.5714V35.2163C85.5714 34.4566 86.2107 33.8413 87 33.8413H89.8571C90.6464 33.8413 91.2857 34.4566 91.2857 35.2163V39.3413H95.5714C96.3607 39.3413 97 39.9566 97 40.7163V43.4663C97 44.226 96.3607 44.8413 95.5714 44.8413H91.2857V54.4663C91.2857 55.226 90.6464 55.8413 89.8571 55.8413H87C86.2107 55.8413 85.5714 55.226 85.5714 54.4663V44.8413H81.2857C80.4964 44.8413 79.8571 44.226 79.8571 43.4663V40.7163ZM101 66.8413H75.5714C73.8571 66.8413 72.7143 65.7413 72.7143 64.0913C72.7143 62.4413 74.1429 61.3413 75.5714 61.3413H101V66.8413Z" fill="#202020"/>
</g>
<defs>
<clipPath id="clip0">
<rect width="40" height="44" fill="white" transform="translate(67 28.3413)"/>
</clipPath>
</defs>
</svg>
