<svg width="174" height="150" viewBox="0 0 174 150" fill="none" xmlns="http://www.w3.org/2000/svg">
<path d="M86.6587 150L0.0561523 0L173.261 0L86.6587 150Z" fill="#202020"/>
<g clip-path="url(#clip0)">
<path d="M98.7374 49.5402L89.6 43.7412V39.3412H93.5C94.2183 39.3412 94.8 38.7259 94.8 37.9662V35.2162C94.8 34.4565 94.2183 33.8412 93.5 33.8412H89.6V29.7162C89.6 28.9565 89.0182 28.3412 88.3 28.3412H85.7C84.9817 28.3412 84.4 28.9565 84.4 29.7162V33.8412H80.5C79.7817 33.8412 79.2 34.4565 79.2 35.2162V37.9662C79.2 38.7259 79.7817 39.3412 80.5 39.3412H84.4V43.7412L75.2626 49.5402C74.8775 49.7845 74.5589 50.1301 74.3376 50.5434C74.1163 50.9566 74 51.4234 74 51.8984V72.3412H81.8V64.0912C81.8 61.0533 84.1278 58.5912 87 58.5912C89.8722 58.5912 92.2 61.0533 92.2 64.0912V72.3412H100V51.8984C100 50.9324 99.5206 50.037 98.7374 49.5402ZM61 62.369V70.9662C61 71.7259 61.5817 72.3412 62.3 72.3412H71.4V55.8412L62.5754 59.8407C62.1079 60.053 61.7094 60.4057 61.4294 60.8551C61.1494 61.3045 61.0001 61.8308 61 62.369V62.369ZM111.425 59.8407L102.6 55.8412V72.3412H111.7C112.418 72.3412 113 71.7259 113 70.9662V62.369C113 61.269 112.38 60.2747 111.425 59.8407Z" fill="#FCFCFC"/>
</g>
<defs>
<clipPath id="clip0">
<rect width="52" height="44" fill="white" transform="translate(61 28.3412)"/>
</clipPath>
</defs>
</svg>
